{
  "accessors": [
    {
      "bufferView": 2,
      "componentType": 5126,
      "count": 65532,
      "max": [
        0.470223993062973,
        0.589942991733551,
        0.5976600050926208
      ],
      "min": [
        -0.5413709878921509,
        -0.9986500144004822,
        -0.511135995388031
      ],
      "type": "VEC3"
    },
    {
      "bufferView": 2,
      "byteOffset": 786384,
      "componentType": 5126,
      "count": 65532,
      "max": [
        0.9998559355735779,
        0.9999990463256836,
        0.9999462366104126
      ],
      "min": [
        -0.999973475933075,
        -0.9999963641166687,
        -0.9998542070388794
      ],
      "type": "VEC3"
    },
    {
      "bufferView": 3,
      "componentType": 5126,
      "count": 65532,
      "max": [
        0.9999964833259583,
        0.9998743534088135,
        0.9998857378959656,
        1.0
      ],
      "min": [
        -0.9999784827232361,
        -0.999820351600647,
        -0.9999980330467224,
        -1.0
      ],
      "type": "VEC4"
    },
    {
      "bufferView": 1,
      "componentType": 5126,
      "count": 65532,
      "max": [
        0.9989039897918701,
        0.9845479726791382
      ],
      "min": [
        0.0,
        0.0
      ],
      "type": "VEC2"
    },
    {
      "bufferView": 0,
      "componentType": 5125,
      "count": 316326,
      "type": "SCALAR"
    },
    {
      "bufferView": 2,
      "byteOffset": 1572768,
      "componentType": 5126,
      "count": 65532,
      "max": [
        0.563785970211029,
        0.9892380237579346,
        0.40631601214408875
      ],
      "min": [
        -0.5348780155181885,
        -0.9989259839057922,
        -0.5624840259552002
      ],
      "type": "VEC3"
    },
    {
      "bufferView": 2,
      "byteOffset": 2359152,
      "componentType": 5126,
      "count": 65532,
      "max": [
        0.999983549118042,
        0.99998539686203,
        0.9999861717224121
      ],
      "min": [
        -0.9999910593032837,
        -0.9999999403953552,
        -0.9984825849533081
      ],
      "type": "VEC3"
    },
    {
      "bufferView": 3,
      "byteOffset": 1048512,
      "componentType": 5126,
      "count": 65532,
      "max": [
        0.9999586939811707,
        1.0,
        0.999579906463623,
        1.0
      ],
      "min": [
        -0.9999293088912964,
        -0.9999905228614807,
        -0.9986968636512756,
        -1.0
      ],
      "type": "VEC4"
    },
    {
      "bufferView": 1,
      "byteOffset": 524256,
      "componentType": 5126,
      "count": 65532,
      "max": [
        1.0,
        0.9836680293083191
      ],
      "min": [
        0.0,
        0.0
      ],
      "type": "VEC2"
    },
    {
      "bufferView": 0,
      "byteOffset": 1265304,
      "componentType": 5125,
      "count": 316953,
      "type": "SCALAR"
    },
    {
      "bufferView": 2,
      "byteOffset": 3145536,
      "componentType": 5126,
      "count": 65532,
      "max": [
        0.522271990776062,
        0.9941980242729187,
        0.2117130011320114
      ],
      "min": [
        -0.5418279767036438,
        -0.9957690238952637,
        -0.5690310001373291
      ],
      "type": "VEC3"
    },
    {
      "bufferView": 2,
      "byteOffset": 3931920,
      "componentType": 5126,
      "count": 65532,
      "max": [
        0.9999995231628418,
        0.9999839067459106,
        0.9968686103820801
      ],
      "min": [
        -0.999978244304657,
        -0.9998733997344971,
        -0.9999940395355225
      ],
      "type": "VEC3"
    },
    {
      "bufferView": 3,
      "byteOffset": 2097024,
      "componentType": 5126,
      "count": 65532,
      "max": [
        0.9999948740005493,
        0.9999961853027344,
        0.9986578822135925,
        1.0
      ],
      "min": [
        -0.9996789693832397,
        -0.9996182918548584,
        -0.9991714358329773,
        -1.0
      ],
      "type": "VEC4"
    },
    {
      "bufferView": 1,
      "byteOffset": 1048512,
      "componentType": 5126,
      "count": 65532,
      "max": [
        0.9897130131721497,
        0.9841269850730896
      ],
      "min": [
        0.0,
        0.0024659999180585146
      ],
      "type": "VEC2"
    },
    {
      "bufferView": 0,
      "byteOffset": 2533116,
      "componentType": 5125,
      "count": 325785,
      "type": "SCALAR"
    },
    {
      "bufferView": 2,
      "byteOffset": 4718304,
      "componentType": 5126,
      "count": 60752,
      "max": [
        1.0001449584960938,
        0.9940760135650635,
        0.1481820046901703
      ],
      "min": [
        -0.99857497215271,
        -0.9987710118293762,
        -0.5708379745483398
      ],
      "type": "VEC3"
    },
    {
      "bufferView": 2,
      "byteOffset": 5447328,
      "componentType": 5126,
      "count": 60752,
      "max": [
        0.9999604225158691,
        0.9997652173042297,
        0.9999972581863403
      ],
      "min": [
        -0.9999910593032837,
        -0.999988853931427,
        -0.9999986290931702
      ],
      "type": "VEC3"
    },
    {
      "bufferView": 3,
      "byteOffset": 3145536,
      "componentType": 5126,
      "count": 60752,
      "max": [
        0.9999895095825195,
        0.9999909996986389,
        0.9999905228614807,
        1.0
      ],
      "min": [
        -0.9999303817749023,
        -0.9996253252029419,
        -0.9999982714653015,
        -1.0
      ],
      "type": "VEC4"
    },
    {
      "bufferView": 1,
      "byteOffset": 1572768,
      "componentType": 5126,
      "count": 60752,
      "max": [
        0.9975810050964355,
        0.9838129878044128
      ],
      "min": [
        0.0,
        0.0
      ],
      "type": "VEC2"
    },
    {
      "bufferView": 0,
      "byteOffset": 3836256,
      "componentType": 5125,
      "count": 229146,
      "type": "SCALAR"
    }
  ],
  "asset": {
    "extras": {
      "author": "theacidrose (https://sketchfab.com/theacidrose)",
      "license": "CC-BY-4.0 (http://creativecommons.org/licenses/by/4.0/)",
      "source": "https://sketchfab.com/3d-models/snowman-82dad435931d4a309967db90f91abb40",
      "title": "Snowman"
    },
    "generator": "Sketchfab-16.72.0",
    "version": "2.0"
  },
  "bufferViews": [
    {
      "buffer": 0,
      "byteLength": 4752840,
      "name": "floatBufferViews",
      "target": 34963
    },
    {
      "buffer": 0,
      "byteLength": 2058784,
      "byteOffset": 4752840,
      "byteStride": 8,
      "name": "floatBufferViews",
      "target": 34962
    },
    {
      "buffer": 0,
      "byteLength": 6176352,
      "byteOffset": 6811624,
      "byteStride": 12,
      "name": "floatBufferViews",
      "target": 34962
    },
    {
      "buffer": 0,
      "byteLength": 4117568,
      "byteOffset": 12987976,
      "byteStride": 16,
      "name": "floatBufferViews",
      "target": 34962
    }
  ],
  "buffers": [
    {
      "byteLength": 17105544,
      "uri": "snowman.bin"
    }
  ],
  "images": [
    {
      "uri": "data:image/png;base64,"
    },
    {
      "uri": "data:image/png;base64,"
    },
    {
      "uri": "data:image/png;base64,"
    }
  ],
  "materials": [
    {
      "doubleSided": true,
      "name": "Material.001",
      "normalTexture": {
        "index": 2
      },
      "pbrMetallicRoughness": {
        "baseColorTexture": {
          "index": 0
        },
        "metallicRoughnessTexture": {
          "index": 1
        }
      }
    }
  ],
  "meshes": [
    {
      "name": "Mesh1.0_Material.001_0",
      "primitives": [
        {
          "attributes": {
            "NORMAL": 1,
            "POSITION": 0,
            "TANGENT": 2,
            "TEXCOORD_0": 3
          },
          "indices": 4,
          "material": 0,
          "mode": 4
        }
      ]
    },
    {
      "name": "Mesh1.0_Material.001_0",
      "primitives": [
        {
          "attributes": {
            "NORMAL": 6,
            "POSITION": 5,
            "TANGENT": 7,
            "TEXCOORD_0": 8
          },
          "indices": 9,
          "material": 0,
          "mode": 4
        }
      ]
    },
    {
      "name": "Mesh1.0_Material.001_0",
      "primitives": [
        {
          "attributes": {
            "NORMAL": 11,
            "POSITION": 10,
            "TANGENT": 12,
            "TEXCOORD_0": 13
          },
          "indices": 14,
          "material": 0,
          "mode": 4
        }
      ]
    },
    {
      "name": "Mesh1.0_Material.001_0",
      "primitives": [
        {
          "attributes": {
            "NORMAL": 16,
            "POSITION": 15,
            "TANGENT": 17,
            "TEXCOORD_0": 18
          },
          "indices": 19,
          "material": 0,
          "mode": 4
        }
      ]
    }
  ],
  "nodes": [
    {
      "children": [
        1
      ],
      "matrix": [
        1.0,
        0.0,
        0.0,
        0.0,
        0.0,
        2.220446049250313e-16,
        -1.0,
        0.0,
        0.0,
        1.0,
        2.220446049250313e-16,
        0.0,
        0.0,
        0.0,
        0.0,
        1.0
      ],
      "name": "Sketchfab_model"
    },
    {
      "children": [
        2
      ],
      "matrix": [
        0.009999999776482582,
        0.0,
        0.0,
        0.0,
        0.0,
        0.0,
        0.009999999776482582,
        0.0,
        0.0,
        -0.009999999776482582,
        0.0,
        0.0,
        0.0,
        0.0,
        0.0,
        1.0
      ],
      "name": "Snowman_0811125139_texture.fbx"
    },
    {
      "children": [
        3
      ],
      "name": "RootNode"
    },
    {
      "children": [
        4,
        5,
        6,
        7
      ],
      "matrix": [
        100.0,
        0.0,
        0.0,
        0.0,
        0.0,
        99.99999999999972,
        -7.5497901264043296e-06,
        0.0,
        0.0,
        7.5497901264043296e-06,
        99.99999999999972,
        0.0,
        0.0,
        0.0,
        0.0,
        1.0
      ],
      "name": "Mesh1.0"
    },
    {
      "mesh": 0,
      "name": "Mesh1.0_Material.001_0"
    },
    {
      "mesh": 1,
      "name": "Mesh1.0_Material.001_0"
    },
    {
      "mesh": 2,
      "name": "Mesh1.0_Material.001_0"
    },
    {
      "mesh": 3,
      "name": "Mesh1.0_Material.001_0"
    }
  ],
  "samplers": [
    {
      "magFilter": 9729,
      "minFilter": 9987,
      "wrapS": 10497,
      "wrapT": 10497
    }
  ],
  "scene": 0,
  "scenes": [
    {
      "name": "Sketchfab_Scene",
      "nodes": [
        0
      ]
    }
  ],
  "textures": [
    {
      "sampler": 0,
      "source": 0
    },
    {
      "sampler": 0,
      "source": 1
    },
    {
      "sampler": 0,
      "source": 2
    }
  ]
}
