{
  "accessors": [
    {
      "bufferView": 2,
      "componentType": 5126,
      "count": 14585,
      "max": [
        33.22599411010742,
        93.11119079589844,
        36.17778015136719
      ],
      "min": [
        -32.69654846191406,
        -0.19290496408939362,
        -36.84627914428711
      ],
      "type": "VEC3"
    },
    {
      "bufferView": 2,
      "byteOffset": 175020,
      "componentType": 5126,
      "count": 14585,
      "max": [
        0.9999914169311523,
        1.0,
        0.9993935823440552
      ],
      "min": [
        -0.9999958276748657,
        -1.0,
        -0.9998520612716675
      ],
      "type": "VEC3"
    },
    {
      "bufferView": 3,
      "componentType": 5126,
      "count": 14585,
      "max": [
        0.9997647404670715,
        0.9998283982276917,
        0.999950110912323,
        1.0
      ],
      "min": [
        -0.9999942183494568,
        -0.9993056058883667,
        -0.9999979734420776,
        -1.0
      ],
      "type": "VEC4"
    },
    {
      "bufferView": 1,
      "componentType": 5126,
      "count": 14585,
      "max": [
        0.9989714026451111,
        0.999498724937439
      ],
      "min": [
        0.0012435857206583023,
        0.00021303589164745063
      ],
      "type": "VEC2"
    },
    {
      "bufferView": 1,
      "byteOffset": 116680,
      "componentType": 5126,
      "count": 14585,
      "max": [
        0.9989714026451111,
        0.999498724937439
      ],
      "min": [
        0.0012435857206583023,
        0.00021303589164745063
      ],
      "type": "VEC2"
    },
    {
      "bufferView": 0,
      "componentType": 5125,
      "count": 61008,
      "type": "SCALAR"
    }
  ],
  "asset": {
    "extras": {
      "author": "TiraArt (https://sketchfab.com/TiraArt)",
      "license": "SKETCHFAB Standard (https://sketchfab.com/licenses)",
      "source": "https://sketchfab.com/3d-models/mini-christmas-tree-bfcc350a183a4fbeac0eee9880af6b3d",
      "title": "Mini Christmas Tree"
    },
    "generator": "Sketchfab-15.55.0",
    "version": "2.0"
  },
  "bufferViews": [
    {
      "buffer": 0,
      "byteLength": 244032,
      "name": "floatBufferViews",
      "target": 34963
    },
    {
      "buffer": 0,
      "byteLength": 233360,
      "byteOffset": 244032,
      "byteStride": 8,
      "name": "floatBufferViews",
      "target": 34962
    },
    {
      "buffer": 0,
      "byteLength": 350040,
      "byteOffset": 477392,
      "byteStride": 12,
      "name": "floatBufferViews",
      "target": 34962
    },
    {
      "buffer": 0,
      "byteLength": 233360,
      "byteOffset": 827432,
      "byteStride": 16,
      "name": "floatBufferViews",
      "target": 34962
    }
  ],
  "buffers": [
    {
      "byteLength": 1060792,
      "uri": "tree.bin"
    }
  ],
  "extensionsUsed": [
    "KHR_materials_specular"
  ],
  "images": [
    {
      "uri": "data:image/png;base64,"
    },
    {
      "uri": "data:image/png;base64,"
    },
    {
      "uri": "data:image/png;base64,"
    }
  ],
  "materials": [
    {
      "doubleSided": true,
      "extensions": {
        "KHR_materials_specular": {
          "specularColorFactor": [
            1.0,
            1.0,
            1.0
          ],
          "specularFactor": 0.0
        }
      },
      "name": "tree_01",
      "normalTexture": {
        "index": 2
      },
      "occlusionTexture": {
        "index": 1
      },
      "pbrMetallicRoughness": {
        "baseColorTexture": {
          "index": 0
        },
        "metallicRoughnessTexture": {
          "index": 1
        }
      }
    }
  ],
  "meshes": [
    {
      "name": "christmasTree_tree_01_0",
      "primitives": [
        {
          "attributes": {
            "NORMAL": 1,
            "POSITION": 0,
            "TANGENT": 2,
            "TEXCOORD_0": 3,
            "TEXCOORD_1": 4
          },
          "indices": 5,
          "material": 0,
          "mode": 4
        }
      ]
    }
  ],
  "nodes": [
    {
      "children": [
        1
      ],
      "matrix": [
        1.0,
        0.0,
        0.0,
        0.0,
        0.0,
        2.220446049250313e-16,
        -1.0,
        0.0,
        0.0,
        1.0,
        2.220446049250313e-16,
        0.0,
        0.0,
        0.0,
        0.0,
        1.0
      ],
      "name": "Sketchfab_model"
    },
    {
      "children": [
        2
      ],
      "matrix": [
        0.009999999776482582,
        0.0,
        0.0,
        0.0,
        0.0,
        0.0,
        0.009999999776482582,
        0.0,
        0.0,
        -0.009999999776482582,
        0.0,
        0.0,
        0.0,
        0.0,
        0.0,
        1.0
      ],
      "name": "95641a2e88ea46668a48157a14e8d1f9.fbx"
    },
    {
      "children": [
        3
      ],
      "name": "RootNode"
    },
    {
      "children": [
        4
      ],
      "name": "christmasTree"
    },
    {
      "mesh": 0,
      "name": "christmasTree_tree_01_0"
    }
  ],
  "samplers": [
    {
      "magFilter": 9729,
      "minFilter": 9987,
      "wrapS": 10497,
      "wrapT": 10497
    }
  ],
  "scene": 0,
  "scenes": [
    {
      "name": "Sketchfab_Scene",
      "nodes": [
        0
      ]
    }
  ],
  "textures": [
    {
      "sampler": 0,
      "source": 0
    },
    {
      "sampler": 0,
      "source": 1
    },
    {
      "sampler": 0,
      "source": 2
    }
  ]
}
